<?xml version="1.0" standalone="no"?>
<!DOCTYPE svg PUBLIC "-//W3C//DTD SVG 20010904//EN"
 "http://www.w3.org/TR/2001/REC-SVG-20010904/DTD/svg10.dtd">
<svg version="1.0" xmlns="http://www.w3.org/2000/svg"
 width="1024.000000pt" height="1024.000000pt" viewBox="0 0 1024.000000 1024.000000"
 preserveAspectRatio="xMidYMid meet">
<metadata>
Created by potrace 1.11, written by Peter Selinger 2001-2013
</metadata>
<g transform="translate(0.000000,1024.000000) scale(0.100000,-0.100000)"
fill="#000000" stroke="none">
<path d="M1535 10224 c-595 -92 -1103 -467 -1359 -1004 -71 -149 -110 -264
-144 -419 l-27 -126 0 -3555 0 -3555 27 -126 c156 -720 698 -1257 1424 -1411
l109 -23 3490 -3 c2617 -2 3516 0 3595 8 292 33 594 150 844 329 101 72 269
231 352 335 200 249 333 557 379 876 22 159 22 6981 0 7140 -58 408 -244 766
-548 1056 -275 262 -612 425 -988 479 -152 21 -7015 21 -7154 -1z m3620 -2764
c217 -46 430 -135 563 -237 117 -89 199 -193 271 -342 l38 -79 84 85 c166 167
327 282 554 393 382 188 777 251 1125 180 545 -111 888 -463 966 -991 32 -220
23 -315 -135 -1379 -77 -520 -186 -1259 -243 -1642 l-103 -698 -648 0 -649 0
6 28 c21 101 458 3075 463 3147 26 404 -270 652 -723 606 -336 -34 -556 -193
-686 -493 -21 -49 -49 -131 -63 -183 -18 -72 -465 -3042 -465 -3094 0 -8 -177
-11 -645 -11 l-645 0 5 23 c13 57 475 3214 475 3248 0 119 -49 228 -145 324
-80 81 -169 132 -290 167 -115 32 -282 30 -419 -6 -245 -64 -455 -217 -546
-396 -16 -31 -37 -87 -49 -125 -16 -53 -491 -3174 -491 -3225 0 -7 -207 -10
-645 -10 -355 0 -645 2 -645 4 0 2 155 1047 345 2321 190 1275 345 2319 345
2321 0 2 284 4 630 4 497 0 630 -3 630 -12 0 -7 -20 -140 -43 -295 -24 -156
-41 -283 -38 -283 2 0 56 51 120 113 175 171 342 289 556 392 179 87 381 141
610 165 144 14 413 4 530 -20z"/>
</g>
</svg>
